<?xml version="1.0" standalone="no"?>
<!DOCTYPE svg PUBLIC "-//W3C//DTD SVG 20010904//EN"
 "http://www.w3.org/TR/2001/REC-SVG-20010904/DTD/svg10.dtd">
<svg version="1.0" xmlns="http://www.w3.org/2000/svg"
 width="200.000000pt" height="200.000000pt" viewBox="0 0 200.000000 200.000000"
 preserveAspectRatio="xMidYMid meet">
<metadata>
Created by potrace 1.11, written by Peter Selinger 2001-2013
</metadata>
<g transform="translate(0.000000,200.000000) scale(0.100000,-0.100000)"
fill="#000000" stroke="none">
<path d="M900 1975 c-8 -2 -49 -9 -90 -15 -86 -14 -226 -66 -312 -117 -298
-174 -488 -506 -488 -848 1 -318 145 -601 407 -798 34 -26 65 -47 69 -47 4 0
15 -6 23 -13 32 -27 188 -87 276 -107 132 -30 224 -35 331 -16 115 20 255 65
322 105 29 17 55 31 58 31 15 0 129 93 192 157 405 408 366 1085 -82 1447
-133 107 -266 172 -426 206 -55 11 -251 22 -280 15z m255 -46 c587 -99 938
-738 712 -1293 -115 -281 -351 -488 -647 -567 -122 -33 -338 -33 -460 0 -389
104 -666 424 -710 819 -69 631 479 1147 1105 1041z"/>
<path d="M880 1866 c-31 -38 9 -89 54 -68 45 20 30 82 -20 82 -12 0 -27 -7
-34 -14z m55 -31 c0 -23 -4 -30 -20 -30 -15 0 -21 8 -23 33 -3 30 -1 33 20 30
18 -2 23 -9 23 -33z"/>
<path d="M980 1840 c0 -22 4 -40 9 -40 4 0 6 12 3 28 l-5 27 30 -27 c16 -16
32 -28 36 -28 4 0 7 18 7 40 0 22 -4 40 -9 40 -4 0 -6 -12 -3 -27 l5 -28 -30
28 c-16 15 -32 27 -36 27 -4 0 -7 -18 -7 -40z"/>
<path d="M820 1851 c5 -11 10 -31 10 -45 0 -17 6 -26 16 -26 8 0 13 4 10 8 -3
5 -6 25 -8 45 -2 28 -6 37 -20 37 -15 0 -17 -3 -8 -19z"/>
<path d="M1102 1834 c-13 -20 -20 -39 -16 -42 4 -4 9 -1 11 6 6 17 33 15 33
-3 0 -8 7 -15 16 -15 10 0 14 6 10 18 -3 9 -8 29 -12 45 -8 35 -14 34 -42 -9z
m28 -4 c0 -5 -4 -10 -10 -10 -5 0 -10 5 -10 10 0 6 5 10 10 10 6 0 10 -4 10
-10z"/>
<path d="M775 1850 c3 -5 11 -10 16 -10 6 0 7 5 4 10 -3 6 -11 10 -16 10 -6 0
-7 -4 -4 -10z"/>
<path d="M1193 1848 c0 -7 -3 -27 -7 -44 -6 -28 -4 -32 19 -36 14 -3 28 -1 31
3 3 5 -4 9 -16 9 -18 0 -20 4 -14 23 11 33 10 49 -2 54 -6 2 -11 -2 -11 -9z"/>
<path d="M730 1830 c-16 -30 4 -60 40 -60 16 0 31 4 34 8 2 4 -8 8 -22 7 -24
0 -27 4 -27 33 0 36 -9 41 -25 12z"/>
<path d="M657 1814 c-11 -12 -8 -84 4 -84 5 0 8 4 4 9 -3 5 0 13 6 17 8 4 7 9
-2 15 -7 4 -10 11 -6 15 3 4 15 -3 25 -16 10 -13 24 -21 31 -19 7 3 -1 17 -22
37 -18 18 -36 29 -40 26z"/>
<path d="M1305 1780 c-16 -16 -25 -33 -22 -37 4 -3 7 -1 7 5 0 7 7 12 16 12 8
0 12 5 9 10 -3 6 -2 10 4 10 6 0 9 -13 7 -29 -2 -19 2 -32 10 -35 11 -4 14 6
14 44 0 28 -4 50 -8 50 -5 0 -21 -13 -37 -30z"/>
<path d="M590 1787 c0 -5 5 -18 11 -29 10 -18 9 -20 -6 -14 -35 13 -67 18 -63
10 2 -5 11 -24 18 -41 8 -18 18 -33 23 -33 4 0 3 9 -3 21 -15 27 -9 32 25 19
15 -6 30 -9 32 -6 2 2 -5 21 -16 43 -11 21 -20 34 -21 30z"/>
<path d="M1384 1740 l-21 -38 23 -13 c13 -7 27 -9 31 -6 3 4 -1 7 -10 7 -9 0
-17 6 -17 13 0 21 12 28 27 16 9 -9 13 -8 13 0 0 6 -4 11 -10 11 -5 0 -10 5
-10 11 0 6 9 9 20 6 23 -6 17 8 -8 22 -14 7 -22 2 -38 -29z"/>
<path d="M890 1744 c-275 -49 -493 -219 -593 -460 -44 -107 -52 -153 -52 -294
0 -114 4 -147 23 -210 67 -213 202 -371 397 -466 109 -53 199 -74 325 -74 122
0 215 20 315 69 163 78 280 193 356 346 51 104 70 178 76 299 13 231 -68 432
-240 593 -134 125 -295 192 -476 198 -58 2 -117 2 -131 -1z m285 -49 c116 -29
222 -92 315 -185 147 -147 209 -287 217 -490 6 -155 -2 -189 -52 -217 -47 -27
-126 -51 -209 -64 -55 -9 -61 -8 -76 10 -14 18 -69 46 -76 38 -2 -2 11 -25 30
-53 18 -27 41 -62 51 -79 l17 -30 -28 31 c-16 16 -50 58 -76 92 -39 50 -53 62
-76 62 -15 0 -32 4 -38 9 -5 5 -25 14 -44 19 -31 8 -39 5 -72 -20 -21 -17 -38
-27 -38 -23 0 4 -7 2 -15 -5 -9 -7 -17 -11 -19 -9 -2 2 -7 58 -10 124 l-7 120
20 -25 21 -25 -1 25 c-1 14 -7 48 -14 75 -12 46 -13 47 -14 16 -1 -27 -4 -31
-14 -22 -8 6 -16 9 -18 6 -3 -2 0 -68 7 -147 6 -79 9 -146 7 -150 -2 -5 -12
-8 -21 -8 -9 0 -32 -9 -51 -21 -19 -11 -58 -23 -86 -26 -48 -5 -54 -3 -78 23
-15 16 -27 23 -27 17 0 -7 -7 -10 -15 -6 -19 7 -98 -74 -88 -91 3 -7 1 -6 -7
1 -11 10 -8 19 14 47 l26 35 -18 33 c-10 18 -17 39 -14 46 4 13 -41 62 -57 62
-28 0 -46 -77 -24 -102 8 -9 12 -22 8 -28 -4 -7 -10 -8 -14 -3 -3 5 -32 15
-63 22 -82 18 -161 60 -169 91 -13 48 -9 211 7 283 8 40 36 115 62 167 76 156
231 297 392 356 124 45 304 53 435 19z m15 -960 c36 -20 11 -27 -81 -23 l-74
3 30 16 c37 21 92 23 125 4z"/>
<path d="M683 1490 c0 -36 2 -50 4 -32 2 17 2 47 0 65 -2 17 -4 3 -4 -33z"/>
<path d="M681 1404 c0 -11 3 -14 6 -6 3 7 2 16 -1 19 -3 4 -6 -2 -5 -13z"/>
<path d="M1260 1345 l0 -55 55 2 c41 2 54 6 50 16 -3 8 -5 27 -5 43 0 28 -2
29 -47 30 l-48 2 40 7 40 7 -42 2 -43 1 0 -55z"/>
<path d="M1380 1396 c0 -2 7 -7 16 -10 8 -3 12 -2 9 4 -6 10 -25 14 -25 6z"/>
<path d="M681 1354 c0 -11 3 -14 6 -6 3 7 2 16 -1 19 -3 4 -6 -2 -5 -13z"/>
<path d="M1390 1310 c-8 -5 -12 -12 -9 -15 4 -3 12 1 19 10 14 17 11 19 -10 5z"/>
<path d="M681 1294 c0 -11 3 -14 6 -6 3 7 2 16 -1 19 -3 4 -6 -2 -5 -13z"/>
<path d="M680 1229 c0 -16 4 -28 9 -25 8 5 3 56 -5 56 -2 0 -4 -14 -4 -31z"/>
<path d="M1216 1241 c-10 -15 22 -20 34 -5 10 11 9 14 -8 14 -12 0 -23 -4 -26
-9z"/>
<path d="M1452 1703 c-13 -18 -20 -38 -16 -44 3 -6 14 3 25 20 18 30 39 41 39
21 0 -5 -7 -10 -15 -10 -10 0 -15 -10 -15 -30 0 -16 5 -30 10 -30 6 0 10 11
10 25 0 16 6 25 15 25 23 0 18 26 -8 43 -22 14 -24 13 -45 -20z"/>
<path d="M442 1690 c-25 -23 -27 -33 -12 -61 14 -25 55 -24 74 2 16 23 12 47
-12 67 -21 16 -24 15 -50 -8z m48 -21 c9 -15 8 -24 0 -34 -16 -19 -50 -2 -50
24 0 36 33 43 50 10z"/>
<path d="M1528 1659 c-40 -23 -3 -98 41 -84 32 10 39 54 11 77 -25 21 -29 21
-52 7z m55 -21 c7 -20 -12 -48 -33 -48 -25 0 -33 15 -20 40 12 22 46 27 53 8z"/>
<path d="M377 1633 c-3 -5 8 -22 23 -40 21 -23 31 -28 38 -20 6 8 -1 21 -24
40 -18 15 -35 24 -37 20z"/>
<path d="M336 1591 c-29 -32 -15 -81 24 -81 18 0 50 30 50 46 0 5 -5 1 -11 -8
-12 -21 -40 -23 -57 -6 -18 18 -14 38 10 47 12 4 17 11 11 14 -6 4 -18 -2 -27
-12z"/>
<path d="M1603 1570 c-17 -16 -29 -31 -26 -34 3 -3 14 5 25 17 l19 22 -4 -42
c-3 -24 -3 -43 0 -43 12 0 63 42 63 52 0 6 -10 3 -22 -8 l-21 -19 6 37 c3 21
3 40 -1 42 -4 2 -21 -9 -39 -24z"/>
<path d="M275 1521 c-3 -6 -2 -11 2 -11 5 0 20 -11 35 -25 21 -20 28 -22 37
-11 9 10 7 15 -6 19 -10 4 -28 13 -40 22 -14 11 -23 13 -28 6z"/>
<path d="M250 1486 c0 -4 7 -14 15 -22 23 -23 18 -35 -9 -24 -17 6 -28 5 -35
-4 -9 -11 -3 -15 26 -20 64 -10 66 -9 46 25 -18 31 -43 57 -43 45z"/>
<path d="M1658 1473 c-10 -2 -18 -8 -18 -13 0 -11 33 -7 42 5 4 5 9 7 12 4 3
-3 -3 -15 -14 -26 -15 -16 -16 -24 -7 -31 9 -8 18 0 35 29 l23 39 -28 -1 c-15
-1 -36 -3 -45 -6z"/>
<path d="M1735 1402 c-40 -52 -40 -53 13 -50 33 2 48 7 45 15 -3 8 -12 9 -30
2 -34 -13 -37 -7 -12 20 12 13 17 26 13 31 -5 5 -18 -3 -29 -18z"/>
<path d="M193 1378 c-21 -27 -23 -48 -5 -48 10 0 27 -7 38 -15 12 -8 24 -11
28 -8 11 11 6 21 -11 26 -14 3 -11 6 10 11 34 10 36 30 3 24 -15 -3 -27 0 -30
8 -7 17 -21 18 -33 2z m27 -23 c0 -9 -6 -12 -15 -9 -8 4 -12 10 -9 15 8 14 24
10 24 -6z"/>
<path d="M156 1294 c-11 -27 -7 -33 31 -49 41 -18 40 -18 46 15 2 14 2 19 0
13 -3 -7 -11 -13 -20 -13 -9 0 -13 6 -10 15 4 8 2 17 -3 20 -6 4 -10 -1 -10
-9 0 -16 -12 -21 -23 -9 -4 3 -2 12 4 20 7 8 8 13 1 13 -5 0 -13 -7 -16 -16z"/>
<path d="M1730 1298 c0 -8 24 -12 50 -8 10 1 7 -5 -7 -18 -13 -11 -23 -28 -23
-38 0 -14 7 -11 35 16 19 19 35 37 35 41 0 4 -20 9 -45 11 -25 2 -45 0 -45 -4z"/>
<path d="M137 1223 c-4 -3 -7 -17 -7 -30 0 -27 34 -32 48 -7 5 10 15 14 21 10
9 -6 9 -11 0 -22 -7 -8 -7 -14 -1 -14 16 0 23 31 11 46 -15 18 -38 18 -45 -1
-9 -23 -26 -18 -19 5 6 20 4 25 -8 13z"/>
<path d="M1797 1216 c-26 -7 -36 -14 -32 -24 3 -7 5 -20 5 -28 0 -8 4 -14 10
-14 5 0 7 7 3 16 -7 19 13 34 45 34 12 0 22 4 22 9 0 16 -13 18 -53 7z"/>
<path d="M180 876 c-3 -3 -22 -6 -43 -8 -30 -2 -36 -5 -32 -20 3 -10 8 -27 11
-38 6 -24 61 -28 70 -6 7 17 1 80 -6 72z m0 -45 c0 -10 -7 -21 -15 -25 -23 -8
-45 4 -45 25 0 14 7 19 30 19 23 0 30 -5 30 -19z"/>
<path d="M1828 848 c-21 -6 -38 -14 -38 -19 0 -12 62 -50 69 -43 3 3 -1 9 -9
14 -12 8 -11 13 8 30 35 33 32 35 -30 18z"/>
<path d="M1770 770 c-17 -31 2 -70 33 -70 29 0 47 18 46 45 0 19 -1 19 -9 -2
-11 -26 -42 -30 -60 -8 -10 12 -10 18 0 30 7 9 10 18 7 21 -3 3 -11 -4 -17
-16z"/>
<path d="M158 770 c-15 -4 -30 -5 -34 -1 -4 3 -5 0 -3 -7 5 -16 4 -16 52 -7
20 4 37 11 37 16 0 11 -15 10 -52 -1z"/>
<path d="M207 743 c-4 -6 -20 -13 -37 -16 -17 -4 -30 -13 -30 -21 0 -13 4 -13
36 0 36 15 51 14 40 -4 -3 -6 -15 -8 -25 -5 -13 3 -23 -2 -31 -17 -14 -26 -3
-43 11 -17 6 9 21 17 34 17 17 0 25 5 24 18 -1 28 -15 57 -22 45z"/>
<path d="M1727 654 c-15 -30 -23 -54 -18 -54 5 0 11 5 13 11 3 8 14 7 35 -5
18 -9 34 -12 37 -8 3 5 -10 16 -30 25 -30 15 -33 19 -22 36 11 18 15 18 44 6
28 -11 33 -11 38 1 3 9 -1 14 -12 14 -10 0 -27 6 -38 14 -19 14 -22 12 -47
-40z"/>
<path d="M208 651 c-30 -13 -37 -20 -32 -36 9 -29 25 -44 22 -20 -2 11 2 20 7
20 6 0 9 -3 8 -7 -2 -4 5 -4 14 -1 11 4 13 8 5 11 -17 5 -15 22 3 22 8 0 15
-8 16 -17 0 -10 3 -13 5 -7 3 6 1 20 -3 30 -8 19 -10 19 -45 5z"/>
<path d="M228 589 c-23 -13 -23 -52 -1 -70 15 -13 15 -12 5 7 -14 27 6 58 34
52 24 -4 30 -41 9 -58 -20 -16 -19 -54 2 -71 15 -13 15 -12 4 9 -10 18 -10 27
0 38 17 21 49 17 58 -8 7 -18 3 -29 -16 -49 -34 -37 -15 -44 24 -9 l31 28 -40
44 c-22 24 -39 44 -39 46 6 18 -22 52 -42 52 -7 0 -20 -5 -29 -11z"/>
<path d="M1661 574 c0 -11 3 -14 6 -6 3 7 2 16 -1 19 -3 4 -6 -2 -5 -13z"/>
<path d="M1680 564 c0 -13 44 -74 54 -74 5 0 4 6 -2 13 -13 15 -1 39 18 35 7
-2 15 3 17 10 3 7 -4 12 -19 12 -12 0 -33 3 -45 6 -13 4 -23 3 -23 -2z"/>
<path d="M1645 510 c-3 -5 -1 -18 5 -29 15 -29 13 -34 -16 -27 -20 5 -32 0
-59 -25 l-34 -32 28 -29 c26 -26 31 -28 50 -16 12 7 21 19 21 27 0 11 -4 10
-13 -4 -8 -10 -19 -15 -26 -11 -9 6 -9 11 -1 21 7 8 7 15 1 19 -5 3 -11 0 -14
-6 -2 -7 -8 -10 -12 -6 -18 17 18 37 61 35 35 -2 44 1 44 13 0 9 -5 21 -12 28
-18 18 3 15 23 -4 10 -9 20 -11 23 -6 3 5 -10 22 -28 36 -20 15 -37 22 -41 16z"/>
<path d="M350 415 c-19 -22 -4 -64 25 -71 34 -9 58 13 53 48 -3 15 0 30 6 32
6 2 -8 5 -30 5 -25 1 -46 -5 -54 -14z m64 -12 c4 -10 -1 -25 -14 -37 -19 -19
-21 -19 -37 -3 -16 15 -16 18 2 37 22 24 41 26 49 3z"/>
<path d="M1640 405 c7 -8 17 -12 22 -9 6 4 5 10 -3 15 -22 14 -33 10 -19 -6z"/>
<path d="M428 345 c-15 -18 -25 -35 -22 -38 4 -3 15 4 25 16 l18 22 1 -37 c0
-21 4 -38 8 -38 13 0 61 57 55 64 -4 3 -15 -6 -25 -21 l-18 -28 0 42 c0 23 -3
44 -7 46 -5 2 -20 -10 -35 -28z"/>
<path d="M1433 311 c-40 -25 -73 -50 -73 -55 0 -5 6 -3 14 3 12 10 18 6 34
-25 12 -23 22 -33 26 -26 4 7 0 22 -8 34 -9 12 -16 28 -16 34 0 18 33 27 41
12 4 -7 14 -21 21 -31 13 -18 14 -18 34 0 11 10 14 14 7 9 -9 -6 -18 -5 -26 4
-9 10 -9 13 1 17 6 3 12 9 12 15 0 7 -5 6 -14 -1 -11 -9 -16 -9 -22 0 -4 7 1
18 11 26 17 11 22 10 47 -14 l28 -27 21 21 c14 13 17 23 10 27 -6 4 -11 0 -11
-8 0 -22 -10 -20 -39 8 l-26 23 -72 -46z"/>
<path d="M542 306 c8 -10 -22 -66 -35 -66 -4 0 -5 -5 -1 -11 4 -8 13 -1 22 17
l16 29 10 -37 c15 -51 18 -52 44 -7 12 21 18 39 13 39 -5 0 -13 -9 -16 -20 -8
-26 -25 -16 -25 14 0 13 -8 30 -17 37 -10 7 -15 9 -11 5z"/>
<path d="M628 215 c-21 -19 -34 -35 -28 -35 5 0 11 4 15 10 9 14 36 0 33 -18
-2 -8 3 -17 10 -19 8 -3 12 10 12 46 0 28 -1 51 -2 51 -2 0 -20 -16 -40 -35z
m22 -5 c0 -5 -5 -10 -11 -10 -5 0 -7 5 -4 10 3 6 8 10 11 10 2 0 4 -4 4 -10z"/>
<path d="M1303 238 c-21 -10 -21 -11 -5 -47 9 -20 17 -37 18 -39 5 -8 44 20
44 31 0 8 -3 8 -9 -2 -5 -7 -14 -10 -20 -7 -16 10 -13 26 5 26 8 0 13 4 9 10
-3 5 -13 6 -22 3 -11 -4 -14 -2 -11 8 3 8 11 13 17 12 6 -2 11 2 11 7 0 12 -8
12 -37 -2z"/>
<path d="M708 209 c-27 -15 -22 -56 7 -75 14 -9 28 -14 31 -11 3 3 -4 10 -15
17 -24 12 -28 42 -8 58 10 9 19 8 34 -3 11 -8 23 -12 26 -9 3 3 2 -10 -3 -30
-4 -19 -5 -37 -2 -40 10 -11 18 -6 18 12 0 9 3 29 7 43 6 22 3 28 -16 32 -12
3 -31 8 -42 11 -11 3 -28 1 -37 -5z"/>
<path d="M1212 210 c-19 -8 -21 -13 -12 -29 5 -11 10 -29 10 -40 0 -24 9 -26
44 -9 31 13 41 40 26 68 -11 21 -31 24 -68 10z m56 -44 c-2 -11 -10 -22 -19
-24 -21 -4 -36 47 -17 59 17 11 40 -10 36 -35z"/>
<path d="M826 174 c-9 -8 -16 -22 -16 -29 0 -20 28 -45 50 -45 22 0 50 25 50
45 0 20 -28 45 -50 45 -10 0 -26 -7 -34 -16z m57 -8 c9 -24 -4 -56 -23 -56
-10 0 -22 9 -25 20 -11 36 35 70 48 36z"/>
<path d="M1107 183 c-9 -17 6 -83 18 -83 22 0 45 11 45 22 0 6 -7 5 -15 -2
-20 -17 -26 -10 -28 34 -2 34 -10 46 -20 29z"/>
<path d="M915 135 c0 -25 5 -45 11 -45 6 0 9 13 6 33 l-4 32 31 -35 30 -35 1
32 c0 17 3 38 6 47 3 9 1 16 -5 16 -6 0 -11 -12 -11 -27 l-1 -28 -22 28 c-32
38 -42 34 -42 -18z"/>
<path d="M1027 137 c-9 -26 -12 -47 -7 -47 5 0 12 15 16 33 l7 32 10 -25 c6
-14 9 -28 9 -32 -1 -5 7 -8 18 -8 19 0 20 2 6 28 -8 15 -21 36 -29 46 -13 18
-15 16 -30 -27z"/>
</g>
</svg>
